<svg width="30" height="18" viewBox="0 0 30 18" fill="none" xmlns="http://www.w3.org/2000/svg">
<path d="M21.75 0C23.1562 0 24.3281 0.9375 24.6562 2.25H25.125C27 2.25 28.5 3.75 28.5 5.625V7.875H28.875C29.4844 7.875 30 8.39062 30 9C30 9.60938 29.4844 10.125 28.875 10.125H28.5V12.375C28.5 14.25 27 15.75 25.125 15.75H24.6562C24.3281 17.0625 23.1562 18 21.75 18C20.1094 18 18.75 16.6406 18.75 15V10.125H11.25V15C11.25 16.6406 9.89062 18 8.25 18C6.84375 18 5.67188 17.0625 5.34375 15.75H4.875C3 15.75 1.5 14.25 1.5 12.375V10.125H1.125C0.515625 10.125 0 9.60938 0 9C0 8.39062 0.515625 7.875 1.125 7.875H1.5V5.625C1.5 3.75 3 2.25 4.875 2.25H5.34375C5.67188 0.9375 6.84375 0 8.25 0C9.89062 0 11.25 1.35938 11.25 3V7.875H18.75V3C18.75 1.35938 20.1094 0 21.75 0ZM8.25 2.25C7.82812 2.25 7.5 2.57812 7.5 3V15C7.5 15.4219 7.82812 15.75 8.25 15.75C8.67188 15.75 9 15.4219 9 15V3C9 2.57812 8.67188 2.25 8.25 2.25ZM21.75 2.25C21.3281 2.25 21 2.57812 21 3V15C21 15.4219 21.3281 15.75 21.75 15.75C22.1719 15.75 22.5 15.4219 22.5 15V3C22.5 2.57812 22.1719 2.25 21.75 2.25ZM4.875 4.5C4.26562 4.5 3.75 5.01562 3.75 5.625V12.375C3.75 12.9844 4.26562 13.5 4.875 13.5H5.25V4.5H4.875ZM24.75 13.5H25.125C25.7344 13.5 26.25 12.9844 26.25 12.375V5.625C26.25 5.01562 25.7344 4.5 25.125 4.5H24.75V13.5Z" fill="black"/>
</svg>
