<svg width="60" height="60" viewBox="0 0 60 60" fill="none" xmlns="http://www.w3.org/2000/svg">
<circle cx="30" cy="30" r="29.5" fill="white" stroke="#A7A7A7"/>
<path fill-rule="evenodd" clip-rule="evenodd" d="M29.5 17C22.5938 17 17 22.5938 17 29.5C17 35.0312 20.5781 39.7031 25.5469 41.3594C26.1719 41.4688 26.4062 41.0938 26.4062 40.7656C26.4062 40.4688 26.3906 39.4844 26.3906 38.4375C23.25 39.0156 22.4375 37.6719 22.1875 36.9688C22.0469 36.6094 21.4375 35.5 20.9062 35.2031C20.4688 34.9688 19.8438 34.3906 20.8906 34.375C21.875 34.3594 22.5781 35.2812 22.8125 35.6562C23.9375 37.5469 25.7344 37.0156 26.4531 36.6875C26.5625 35.875 26.8906 35.3281 27.25 35.0156C24.4688 34.7031 21.5625 33.625 21.5625 28.8438C21.5625 27.4844 22.0469 26.3594 22.8438 25.4844C22.7188 25.1719 22.2812 23.8906 22.9688 22.1719C22.9688 22.1719 24.0156 21.8438 26.4062 23.4531C27.4062 23.1719 28.4688 23.0312 29.5313 23.0312C30.5938 23.0312 31.6563 23.1719 32.6563 23.4531C35.0469 21.8281 36.0938 22.1719 36.0938 22.1719C36.7812 23.8906 36.3438 25.1719 36.2188 25.4844C37.0156 26.3594 37.5 27.4688 37.5 28.8438C37.5 33.6406 34.5781 34.7031 31.7969 35.0156C32.25 35.4062 32.6406 36.1562 32.6406 37.3281C32.6406 39 32.625 40.3438 32.625 40.7656C32.625 41.0938 32.8594 41.4844 33.4844 41.3594C38.4219 39.7031 42 35.0156 42 29.5C42 22.5938 36.4062 17 29.5 17Z" fill="#1B1F23"/>
</svg>
