<svg width="20" height="15" viewBox="0 0 20 15" fill="none" xmlns="http://www.w3.org/2000/svg">
<path d="M17.5 1.875H2.5C2.14844 1.875 1.875 2.14844 1.875 2.5V3.75H18.125V2.5C18.125 2.14844 17.8516 1.875 17.5 1.875ZM18.125 6.25H1.875V12.5C1.875 12.8516 2.14844 13.125 2.5 13.125H17.5C17.8516 13.125 18.125 12.8516 18.125 12.5V6.25ZM2.5 0H17.5C18.8672 0 20 1.13281 20 2.5V12.5C20 13.8672 18.8672 15 17.5 15H2.5C1.13281 15 0 13.8672 0 12.5V2.5C0 1.13281 1.13281 0 2.5 0ZM3.125 10.9375C3.125 10.4297 3.55469 10 4.0625 10H5.9375C6.44531 10 6.875 10.4297 6.875 10.9375C6.875 11.4453 6.44531 11.875 5.9375 11.875H4.0625C3.55469 11.875 3.125 11.4453 3.125 10.9375ZM8.75 10.9375C8.75 10.4297 9.17969 10 9.6875 10H12.1875C12.6953 10 13.125 10.4297 13.125 10.9375C13.125 11.4453 12.6953 11.875 12.1875 11.875H9.6875C9.17969 11.875 8.75 11.4453 8.75 10.9375Z" fill="#D6EB31"/>
</svg>
