<svg width="20" height="20" viewBox="0 0 20 20" fill="none" xmlns="http://www.w3.org/2000/svg">
<path d="M18.125 10C18.125 5.50781 14.4922 1.875 10 1.875C5.50781 1.875 1.875 5.50781 1.875 10C1.875 14.4922 5.50781 18.125 10 18.125C14.4922 18.125 18.125 14.4922 18.125 10ZM0 10C0 4.49219 4.49219 0 10 0C15.5078 0 20 4.49219 20 10C20 15.5078 15.5078 20 10 20C4.49219 20 0 15.5078 0 10ZM9.0625 4.6875C9.0625 4.17969 9.49219 3.75 10 3.75C10.5078 3.75 10.9375 4.17969 10.9375 4.6875V9.49219L14.2578 11.7188C14.6875 11.9922 14.8047 12.5781 14.5312 13.0078C14.2578 13.4375 13.6719 13.5547 13.2422 13.2812L9.49219 10.7812C9.21875 10.625 9.0625 10.3125 9.0625 10V4.6875Z" fill="#D6EB31"/>
</svg>
