<svg width="18" height="19" viewBox="0 0 18 19" fill="none" xmlns="http://www.w3.org/2000/svg">
<path d="M12.8125 0C13.3203 0 13.75 0.429688 13.75 0.9375V2.5H15C16.3672 2.5 17.5 3.63281 17.5 5V16.25C17.5 17.6172 16.3672 18.75 15 18.75H2.5C1.13281 18.75 0 17.6172 0 16.25V5C0 3.63281 1.13281 2.5 2.5 2.5H3.75V0.9375C3.75 0.429688 4.17969 0 4.6875 0C5.19531 0 5.625 0.429688 5.625 0.9375V2.5H11.875V0.9375C11.875 0.429688 12.3047 0 12.8125 0ZM2.5 4.375C2.14844 4.375 1.875 4.64844 1.875 5V16.25C1.875 16.6016 2.14844 16.875 2.5 16.875H15C15.3516 16.875 15.625 16.6016 15.625 16.25V5C15.625 4.64844 15.3516 4.375 15 4.375H2.5ZM11.5234 6.95312C11.8359 6.52344 12.4219 6.44531 12.8125 6.75781C13.2422 7.03125 13.3203 7.61719 13.0469 8.04688L8.24219 14.6094C8.08594 14.8438 7.85156 14.9609 7.57812 15C7.30469 15 7.03125 14.9219 6.83594 14.7266L4.64844 12.5391C4.29688 12.1875 4.29688 11.6016 4.64844 11.2109C5.03906 10.8594 5.625 10.8594 5.97656 11.2109L7.38281 12.6172L11.5234 6.95312Z" fill="#D6EB31"/>
</svg>
